<svg width="458" height="122" viewBox="8 12 458 122" xmlns="http://www.w3.org/2000/svg">
  <defs>
    <linearGradient id="bodyGrad" x1="0%" y1="0%" x2="100%" y2="100%">
      <stop offset="0%" stop-color="#3B82F6"/>
      <stop offset="100%" stop-color="#1D4ED8"/>
    </linearGradient>
    <linearGradient id="doorGrad" x1="0%" y1="0%" x2="100%" y2="100%">
      <stop offset="0%" stop-color="#2563EB"/>
      <stop offset="100%" stop-color="#1E40AF"/>
    </linearGradient>
    <clipPath id="doorClip">
      <rect x="33" y="37" width="62" height="71" rx="4"/>
    </clipPath>
  </defs>
  <rect x="20" y="24" width="90" height="90" rx="7" fill="url(#bodyGrad)"/>
  <rect x="23" y="27" width="84" height="84" rx="5" fill="none" stroke="#60A5FA" stroke-width="0.8" opacity="0.4"/>
  <rect x="33" y="37" width="62" height="71" rx="4" fill="url(#doorGrad)"/>
  <rect x="35" y="39" width="58" height="67" rx="3" fill="none" stroke="#60A5FA" stroke-width="0.8" opacity="0.35"/>
  <rect x="28" y="45" width="7" height="4" rx="1.5" fill="#1E40AF"/>
  <rect x="28" y="76" width="7" height="4" rx="1.5" fill="#1E40AF"/>
  <rect x="97" y="65" width="6" height="11" rx="2" fill="#1E3A8A"/>
  <circle cx="64" cy="57" r="10" fill="#1E40AF" stroke="#60A5FA" stroke-width="0.8" opacity="0.6"/>
  <circle cx="64" cy="57" r="7.5" fill="#1D4ED8"/>
  <circle cx="64" cy="57" r="2.5" fill="#3B82F6"/>
  <line x1="64" y1="48" x2="64" y2="50" stroke="#93C5FD" stroke-width="1.2" stroke-linecap="round"/>
  <line x1="64" y1="64" x2="64" y2="66" stroke="#93C5FD" stroke-width="1.2" stroke-linecap="round"/>
  <line x1="55" y1="57" x2="57" y2="57" stroke="#93C5FD" stroke-width="1.2" stroke-linecap="round"/>
  <line x1="71" y1="57" x2="73" y2="57" stroke="#93C5FD" stroke-width="1.2" stroke-linecap="round"/>
  <line x1="64" y1="57" x2="64" y2="50" stroke="#BAE6FD" stroke-width="1.2" stroke-linecap="round"/>
  <g clip-path="url(#doorClip)">
    <rect x="40" y="88" width="9" height="14" rx="2" fill="white" opacity="0.30"/>
    <rect x="53" y="77" width="9" height="25" rx="2" fill="white" opacity="0.50"/>
    <rect x="66" y="66" width="9" height="36" rx="2" fill="white" opacity="0.70"/>
    <rect x="79" y="55" width="9" height="47" rx="2" fill="white" opacity="0.90"/>
    <polyline points="44,88 57,77 70,66 83,55"
      fill="none" stroke="#BAE6FD" stroke-width="1.8" stroke-linecap="round" stroke-linejoin="round"/>
    <circle cx="83" cy="55" r="2.5" fill="#BAE6FD"/>
  </g>
  <circle cx="64" cy="80" r="2.2" fill="#1E3A8A"/>
  <rect x="62.5" y="82" width="3" height="4" rx="1" fill="#1E3A8A"/>
  <rect x="34" y="112" width="8" height="6" rx="2" fill="#1E40AF"/>
  <rect x="68" y="112" width="8" height="6" rx="2" fill="#1E40AF"/>
  <text x="128" y="90"
    font-family="system-ui, -apple-system, sans-serif"
    font-size="68" font-weight="700"
    letter-spacing="-2">
    <tspan fill="#60A5FA">Zero</tspan><tspan fill="#2563EB">Gasto</tspan>
  </text>
  <text x="130" y="118"
    font-family="system-ui, -apple-system, sans-serif"
    font-size="13" font-weight="400"
    fill="#6B7280"
    letter-spacing="3.5">CONTROLA CADA PESO</text>
</svg>
